PathFileType   4   (X/Y/Z)
DataRate	CameraRate	NumFrames	NumMarkers	Units	OrigDataRate	OrigDataStartFrame	OrigNumFrames
120.0	120.0	7	37	mm	120.0	162	184
Frame#	Time	midhip	hip_r	hip_l	knee_r	knee_l	ankle_r	ankle_l	midasis	asis_r	asis_l	psis_r	psis_l	epicondLat_r	epicondLat_l	epicondMed_r	epicondMed_l	malleolusLat_r	malleolusLat_l	malleolusMedv_r	malleolusMedv_l	neck	subclavicle_r	subclavicle_l	sternalnotch	xyphoidprocess	thighwand_r	thighwand_l	upperleg1_r	upperleg1_l	upperleg2_r	upperleg2_l	shankwand_r	shankwand_l	lowerleg1_r	lowerleg1_l	toe_r	toe_l
 	 	X1	Y1	Z1	X2	Y2	Z2	X3	Y3	Z3	X4	Y4	Z4	X5	Y5	Z5	X6	Y6	Z6	X7	Y7	Z7	X8	Y8	Z8	X9	Y9	Z9	X10	Y10	Z10	X11	Y11	Z11	X12	Y12	Z12	X13	Y13	Z13	X14	Y14	Z14	X15	Y15	Z15	X16	Y16	Z16	X17	Y17	Z17	X18	Y18	Z18	X19	Y19	Z19	X20	Y20	Z20	X21	Y21	Z21	X22	Y22	Z22	X23	Y23	Z23	X24	Y24	Z24	X25	Y25	Z25	X26	Y26	Z26	X27	Y27	Z27	X28	Y28	Z28	X29	Y29	Z29	X30	Y30	Z30	X31	Y31	Z31	X32	Y32	Z32	X33	Y33	Z33	X34	Y34	Z34	X35	Y35	Z35	X36	Y36	Z36	X37	Y37	Z37

	162	1.55000	-180.298	729.575	272.561	-200.623	729.610	327.395	-187.202	727.643	197.787	-268.215	399.975	288.916	-73.674	417.575	201.933	-363.454	67.901	258.320	94.929	101.340	184.251	-121.356	794.852	269.099	-131.941	796.403	371.321	-110.771	793.300	166.877	-278.503	842.383	284.104	-273.689	836.953	229.734	-278.337	395.759	342.812	-72.364	417.327	147.449	-245.378	407.953	245.926	-76.174	384.545	243.274	-375.675	68.140	293.772	86.115	98.644	148.418	-359.665	72.451	233.374	100.296	103.997	213.363	-270.071	1199.119	256.696	-157.902	1146.190	295.299	-161.056	1148.960	219.154	-174.154	1145.616	256.366	-141.728	1064.968	254.499	-162.092	499.287	426.152	19.230	576.321	196.925	-217.145	567.376	387.033	-64.636	606.387	156.435	-228.600	485.524	364.372	-45.627	521.157	160.592	-368.194	173.661	377.626	36.332	217.773	78.376	-365.551	144.024	299.210	45.882	174.814	150.395	-274.343	36.266	287.168	198.919	113.185	165.141
	163	1.55833	-175.047	728.436	272.546	-194.533	728.818	327.030	-181.264	726.786	197.408	-264.479	399.646	288.910	-67.195	417.055	202.522	-363.012	68.458	258.486	102.868	101.445	185.649	-115.321	794.017	268.611	-125.789	795.620	370.873	-104.852	792.414	166.349	-272.793	841.679	283.745	-267.852	836.186	229.374	-274.700	395.577	342.798	-65.589	416.747	148.046	-240.869	407.495	245.843	-69.949	384.160	244.143	-375.206	68.828	293.946	94.050	98.608	149.827	-359.280	73.075	233.497	108.619	104.413	214.695	-264.067	1198.271	256.140	-151.739	1145.334	294.343	-155.142	1148.128	218.144	-168.118	1144.771	255.430	-135.686	1064.127	253.434	-157.882	498.502	426.013	25.389	575.978	197.838	-212.228	566.768	386.905	-58.290	605.927	156.997	-224.014	485.146	364.314	-39.193	520.619	161.369	-366.604	174.396	377.764	43.706	217.307	79.442	-364.282	144.702	299.385	53.677	174.598	151.674	-274.298	36.161	287.304	206.870	113.708	165.696
	164	1.56667	-168.518	728.245	271.883	-188.380	728.080	326.649	-175.245	725.999	197.014	-260.712	399.356	288.910	-60.580	416.579	202.979	-362.519	69.105	258.695	110.119	101.156	187.013	-109.201	793.225	268.126	-119.565	794.867	370.420	-98.836	791.584	165.832	-266.783	841.009	283.361	-262.007	835.512	228.987	-271.045	395.444	342.788	-58.702	416.225	148.512	-236.414	407.195	245.614	-63.487	383.722	244.663	-374.690	69.613	294.161	101.306	98.200	151.200	-358.837	73.728	233.662	116.135	104.420	215.994	-257.919	1197.484	255.490	-145.541	1144.491	293.320	-149.196	1147.331	217.157	-162.049	1143.958	254.472	-129.665	1063.301	252.319	-153.692	497.731	425.864	31.639	575.711	198.610	-207.401	566.292	386.770	-51.938	605.525	157.525	-219.520	484.771	364.147	-32.701	520.197	161.969	-364.979	175.215	377.922	50.740	216.597	80.439	-362.973	145.506	299.725	60.848	174.110	152.858	-274.242	36.046	287.444	214.167	113.532	166.543
	165	1.57500	-163.112	727.215	271.479	-182.139	727.376	326.245	-169.116	725.269	196.599	-256.907	399.102	288.906	-53.866	416.147	203.353	-361.975	69.840	258.936	116.698	100.488	188.307	-102.985	792.481	267.643	-113.262	794.144	369.959	-92.707	790.818	165.327	-260.881	840.411	282.987	-256.096	834.921	228.578	-267.372	395.359	342.772	-51.760	415.742	148.895	-232.423	406.868	245.390	-56.126	383.060	244.938	-374.129	70.490	294.406	107.891	97.437	152.500	-358.325	74.441	233.892	122.863	103.967	217.243	-251.636	1196.731	254.785	-139.289	1143.680	292.270	-143.214	1146.525	216.227	-155.937	1143.164	253.536	-123.640	1062.475	251.260	-149.521	496.986	425.707	37.978	575.501	199.206	-202.624	565.855	386.559	-45.847	604.979	158.101	-215.248	484.334	363.919	-26.137	519.886	162.430	-363.323	176.112	378.091	57.404	215.681	81.355	-361.705	146.366	300.208	67.467	173.393	153.961	-274.169	35.939	287.576	220.824	112.731	167.706
	166	1.58333	-156.577	726.886	270.154	-175.857	726.695	325.786	-162.884	724.598	196.135	-253.076	398.880	288.896	-47.088	415.760	203.673	-361.405	70.641	259.194	122.624	99.462	189.504	-96.690	791.766	267.163	-106.930	793.422	369.495	-86.451	790.111	164.831	-254.577	839.781	282.587	-250.179	834.409	228.154	-263.684	395.319	342.745	-44.805	415.287	149.223	-228.463	406.483	245.225	-48.772	382.457	244.984	-373.542	71.437	294.667	113.829	96.347	153.700	-357.800	75.249	234.163	128.794	103.024	218.413	-245.304	1195.984	254.055	-132.963	1142.929	291.223	-137.148	1145.705	215.284	-149.745	1142.389	252.595	-117.515	1061.674	250.278	-145.342	496.280	425.563	44.412	575.331	199.612	-197.784	565.398	386.336	-39.631	604.535	158.522	-210.960	483.884	363.717	-19.497	519.613	162.706	-361.648	177.072	378.267	63.709	214.594	82.185	-360.422	147.286	300.597	73.567	172.465	155.009	-274.086	35.851	287.697	226.848	111.376	169.191
	167	1.59167	-151.519	725.170	269.222	-169.538	726.026	325.270	-156.541	723.971	195.621	-249.217	398.683	288.876	-40.266	415.408	203.943	-360.856	71.483	259.452	127.917	98.102	190.596	-90.317	791.068	266.688	-100.576	792.690	369.034	-80.058	789.446	164.343	-248.184	839.152	282.207	-243.942	833.903	227.721	-259.976	395.317	342.708	-37.850	414.850	149.499	-224.515	406.149	245.168	-41.790	382.066	244.864	-372.967	72.425	294.930	119.149	94.961	154.788	-357.321	76.096	234.411	133.884	101.648	219.465	-239.022	1195.260	253.356	-126.586	1142.216	290.162	-130.952	1144.976	214.198	-143.460	1141.667	251.556	-111.232	1060.953	249.182	-141.131	495.616	425.444	50.940	575.172	199.840	-192.897	564.999	386.158	-33.082	604.270	158.674	-206.633	483.539	363.601	-12.738	519.388	162.791	-359.942	178.092	378.462	69.696	213.359	82.939	-359.121	148.206	300.775	79.247	171.393	155.874	-274.003	35.782	287.810	232.241	109.517	170.980
	168	1.60000	-144.760	724.674	267.887	-163.150	725.374	324.718	-150.074	723.382	195.075	-245.316	398.508	288.852	-33.410	415.078	204.149	-360.320	72.378	259.721	132.585	96.430	191.592	-83.840	790.385	266.222	-94.164	791.957	368.582	-73.516	788.812	163.862	-241.459	838.514	281.808	-237.567	833.423	227.301	-256.239	395.349	342.664	-30.904	414.424	149.711	-220.583	405.831	245.196	-34.713	381.715	244.641	-372.390	73.464	295.208	123.874	93.304	155.768	-356.798	77.000	234.647	138.175	99.902	220.441	-232.746	1194.576	252.631	-120.173	1141.554	289.023	-124.660	1144.341	213.003	-137.107	1141.011	250.411	-104.842	1060.314	247.958	-136.897	494.982	425.345	57.556	574.995	199.902	-188.060	564.634	385.997	-26.445	604.014	158.664	-202.306	483.287	363.550	-5.891	519.191	162.734	-358.178	179.170	378.685	75.408	212.004	83.624	-357.839	149.132	300.880	84.488	170.148	156.544	-273.905	35.749	287.914	237.001	107.181	173.024
